<?xml version="1.0"?>
<svg xmlns="http://www.w3.org/2000/svg" xmlns:xlink="http://www.w3.org/1999/xlink" xmlns:svgjs="http://svgjs.com/svgjs" version="1.1" width="512" height="512" x="0" y="0" viewBox="0 0 64 64" style="enable-background:new 0 0 512 512" xml:space="preserve" class=""><g><g xmlns="http://www.w3.org/2000/svg" id="Data_mining" data-name="Data mining"><path d="M18,56H7V4H47V25a1,1,0,0,0,2,0V3a1,1,0,0,0-1-1H6A1,1,0,0,0,5,3V57a1,1,0,0,0,1,1H18a1,1,0,0,0,0-2Z" fill="#373f5d" data-original="#000000" style="" class=""/><path d="M55.467,37.847l.018-.019a1,1,0,0,0,0-1.414l-2.121-2.121,1.414-1.415a1,1,0,0,0,0-1.414l-4.243-4.242a1.029,1.029,0,0,0-1.414,0l-1.414,1.414-2.121-2.121a1,1,0,0,0-1.414,0l-.019.019a12.95,12.95,0,0,0-11.425-3.276l-4.309.862a1,1,0,0,0-.12,1.929l3.677,1.226a11.051,11.051,0,0,1,4.3,2.657l2.24,2.24h0a1,1,0,0,0,0,1.414l2.121,2.121L21.787,54.557a4,4,0,1,0,5.656,5.656l18.85-18.849,2.121,2.121a1,1,0,0,0,1.414,0h0l2.24,2.24a11.055,11.055,0,0,1,2.658,4.3L55.951,53.7a1,1,0,0,0,.948.684l.063,0a1,1,0,0,0,.918-.8l.862-4.31A12.962,12.962,0,0,0,55.467,37.847ZM32.608,25.377l-.1-.034.617-.124a10.981,10.981,0,0,1,9.631,2.716l-2.822,2.822-2.24-2.239A13.063,13.063,0,0,0,32.608,25.377Zm17.22,3.966,2.829,2.828-.707.708L49.121,30.05ZM26.029,58.8a2.047,2.047,0,0,1-2.828,0,2,2,0,0,1,0-2.828L42.05,37.121l2.829,2.829Zm14.607-25.92,4.243-4.243,8.485,8.485-4.243,4.243Zm16.145,16-.124.618-.034-.1a13.052,13.052,0,0,0-3.141-5.082l-2.24-2.24,2.823-2.822A10.975,10.975,0,0,1,56.781,48.879Z" fill="#373f5d" data-original="#000000" style="" class=""/><path d="M48,58H34.25a1,1,0,0,1,0-2H47V46a1,1,0,0,1,2,0V57A1,1,0,0,1,48,58Z" fill="#373f5d" data-original="#000000" style="" class=""/><path d="M44,19H42V10a1,1,0,0,0-1-1H37a1,1,0,0,0-1,1v9H34V7a1,1,0,0,0-1-1H29a1,1,0,0,0-1,1V19H26V10a1,1,0,0,0-1-1H21a1,1,0,0,0-1,1v9H18V14a1,1,0,0,0-1-1H13a1,1,0,0,0-1,1v5H10a1,1,0,0,0,0,2H44a1,1,0,0,0,0-2ZM14,19V15h2v4Zm8,0V11h2v8Zm8,0V8h2V19Zm8,0V11h2v8Z" fill="#373f5d" data-original="#000000" style="" class=""/><path d="M14,30H12a1,1,0,0,1,0-2h2a1,1,0,0,1,0,2Z" fill="#373f5d" data-original="#000000" style="" class=""/><path d="M30,30H18a1,1,0,0,1,0-2H30a1,1,0,0,1,0,2Z" fill="#373f5d" data-original="#000000" style="" class=""/><path d="M35,36H12a1,1,0,0,1,0-2H35a1,1,0,0,1,0,2Z" fill="#373f5d" data-original="#000000" style="" class=""/><path d="M30,42H12a1,1,0,0,1,0-2H30a1,1,0,0,1,0,2Z" fill="#373f5d" data-original="#000000" style="" class=""/><path d="M24,48H12a1,1,0,0,1,0-2H24a1,1,0,0,1,0,2Z" fill="#373f5d" data-original="#000000" style="" class=""/></g></g></svg>
