<svg id="Capa_1" enable-background="new 0 0 512 512" height="512" viewBox="0 0 512 512" width="512" xmlns="http://www.w3.org/2000/svg"><g><g><g><path d="m82.875 164.697c0 15.904 12.939 28.843 28.843 28.843h18.013c4.142 0 7.5-3.358 7.5-7.5s-3.357-7.5-7.5-7.5h-18.013c-7.633 0-13.844-6.211-13.844-13.844v-22.456c35.812-3.76 63.818-34.13 63.818-70.922 0-39.325-31.993-71.318-71.318-71.318s-71.319 31.993-71.319 71.318c0 36.792 28.006 67.162 63.819 70.922v22.457zm-48.82-93.379c0-31.055 25.265-56.319 56.32-56.319s56.319 25.265 56.319 56.319-25.264 56.319-56.319 56.319-56.32-25.264-56.32-56.319z"/><path d="m109.371 100.922c2.93 2.929 7.677 2.929 10.607 0 2.929-2.929 2.929-7.677 0-10.606l-18.998-18.997 18.998-18.998c2.929-2.929 2.929-7.677 0-10.606s-7.676-2.93-10.607 0l-18.997 18.997-18.997-18.997c-2.93-2.929-7.677-2.929-10.607 0-2.929 2.929-2.929 7.677 0 10.606l18.998 18.998-18.998 18.997c-2.929 2.929-2.929 7.677 0 10.606s7.677 2.929 10.607 0l18.997-18.997z"/><path d="m452.285 45.972c-3.462-2.274-8.112-1.313-10.386 2.149l-24.475 37.246-17.159-16.389c-2.994-2.86-7.743-2.752-10.603.244-2.86 2.995-2.752 7.743.244 10.603l19.169 18.308c5.689 5.433 14.982 4.456 19.357-2.206l26.001-39.57c2.275-3.461 1.313-8.11-2.148-10.385z"/><path d="m355.716 377.995c-23.281-9.917-43.866-13.622-49.575-14.518-8.485-5.453-5.474-15.066-6.076-19.533 4.626-2.761 9.08-5.997 13.339-9.741 13.846-12.17 22.614-29.583 24.661-48.581 10.364-1.096 18.448-9.975 18.404-20.683l-.062-28.184c-.007-1.829-.256-3.624-.733-5.369.687-2.078 1.058-4.284 1.058-6.554v-38.926c0-36.614-29.788-66.403-66.402-66.403h-68.66c-36.614 0-66.402 29.788-66.402 66.403v38.926c0 3.145.717 6.164 2 8.891-1.137 2.978-1.738 6.139-1.736 9.341l.013 17.039c.009 13.764 10.651 25.086 24.135 26.184 2.203 18.985 11.117 36.325 25.067 48.379 2.34 2.022 4.741 3.88 7.189 5.609-.804 7.247 2.806 17.494-6.076 23.202-5.709.896-26.294 4.601-49.575 14.518-46.911 19.982-77.223 65.982-77.223 117.19 0 9.272 7.543 16.815 16.815 16.815h320.246c9.272 0 16.815-7.543 16.815-16.815 0-51.208-30.311-97.208-77.222-117.19zm-185.449-192.089c0-28.344 23.059-51.404 51.403-51.404h68.66c28.344 0 51.403 23.06 51.403 51.404v38.926c0 2.524-1.601 4.778-3.984 5.607l-14.509 5.052c-.068.023-.146.05-.27-.039-.125-.089-.125-.174-.125-.245l.032-27.427c.072-17.462-13.943-31.73-31.239-31.804-.362.026-6.706-.299-14.463 2.193-4.171 1.34-14.94 2.57-21.176 3.074-25.345-2.046-22.805-5.276-35.35-5.269l-.281.001c-17.302.074-31.317 14.342-31.245 31.782l.032 27.451c0 .068 0 .154-.125.243-.124.089-.201.062-.27.039l-14.509-5.052c-2.383-.83-3.984-3.083-3.984-5.607zm23.898 92.777c-.104-4.067-3.429-7.309-7.498-7.309-.001 0-.002 0-.003 0l-4.826.002c-.002 0-.003 0-.005 0-6.222 0-11.286-5.06-11.29-11.283l-.011-15.067 13.297 4.63c4.673 1.627 9.869.885 13.9-1.984s6.432-7.536 6.425-12.482l-.032-27.471c-.038-9.193 7.279-16.704 16.316-16.743.214.016 4.57-.206 9.797 1.474 6.681 2.147 24.279 3.953 26.34 3.795 1.801-.139 17.807-1.422 25.189-3.795 5.1-1.639 9.681-1.465 9.804-1.474 9.032.039 16.349 7.549 16.311 16.765l-.032 27.447c-.007 4.947 2.394 9.614 6.425 12.484 4.031 2.869 9.226 3.611 13.9 1.984l13.255-4.615.043 19.946c.013 3.158-2.473 5.737-5.544 5.75l-4.942.021c-4.079.018-7.397 3.293-7.466 7.372-.299 17.558-7.594 33.89-20.016 44.808-12.735 11.195-27.74 17.225-44.402 17.504-16.565-.135-31.554-5.897-44.547-17.124-12.512-10.811-19.943-27.08-20.388-44.635zm64.913 76.759h.054c.038 0 .077 0 .116-.001 9.027-.141 17.646-1.645 25.818-4.479.118.695-1.061 10.667 6.872 19.841-10.353 7.67-22.842 11.826-35.938 11.826s-25.585-4.156-35.938-11.826c8.475-9.799 6.624-20.358 6.872-22.034 10.031 4.356 20.775 6.593 32.144 6.673zm157.045 141.559h-53.88v-24.009c0-4.142-3.357-7.5-7.5-7.5-4.142 0-7.5 3.358-7.5 7.5v24.009h-182.487v-24.009c0-4.142-3.357-7.5-7.5-7.5s-7.5 3.358-7.5 7.5v24.009h-53.88c-1.002 0-1.816-.814-1.816-1.816 0-45.186 26.732-85.769 68.102-103.391 19.144-8.155 36.65-11.84 43.803-13.119 13.82 12.251 31.439 18.952 50.034 18.952 18.593 0 36.214-6.703 50.034-18.952 7.158 1.28 24.662 4.965 43.803 13.119 41.371 17.622 68.102 58.205 68.102 103.391.001 1.002-.813 1.816-1.815 1.816z"/><path d="m421.626 0c-39.325 0-71.318 31.993-71.318 71.318 0 36.792 28.006 67.162 63.818 70.922v22.457c0 7.634-6.211 13.844-13.844 13.844h-18.012c-4.142 0-7.5 3.358-7.5 7.5s3.357 7.5 7.5 7.5h18.013c15.904 0 28.843-12.939 28.843-28.843v-22.458c35.813-3.76 63.819-34.129 63.819-70.922 0-39.325-31.994-71.318-71.319-71.318zm0 127.638c-31.055 0-56.319-25.265-56.319-56.319s25.264-56.319 56.319-56.319 56.32 25.265 56.32 56.319-25.266 56.319-56.32 56.319z"/></g></g></g></svg>